<?xml version="1.0" encoding="UTF-8"?>
<svg version="1.1" xmlns="http://www.w3.org/2000/svg" width="32" height="32">
<path d="M0 0 C4.8846525 2.26787438 7.73212562 5.1153475 10 10 C11.19165309 19.98846302 11.19165309 19.98846302 8.59765625 24.3671875 C8.07042969 24.90601562 7.54320313 25.44484375 7 26 C6.34 26 5.68 26 5 26 C4.87625 26.928125 4.87625 26.928125 4.75 27.875 C4 30 4 30 2.3203125 31.109375 C-2.27642977 32.87378112 -7.16710654 32.51827276 -12 32 C-16.8846525 29.73212562 -19.73212562 26.8846525 -22 22 C-23.19165309 12.01153698 -23.19165309 12.01153698 -20.59765625 7.6328125 C-20.07042969 7.09398437 -19.54320312 6.55515625 -19 6 C-18.34 6 -17.68 6 -17 6 C-16.9175 5.38125 -16.835 4.7625 -16.75 4.125 C-16 2 -16 2 -14.3203125 0.890625 C-9.72357023 -0.87378112 -4.83289346 -0.51827276 0 0 Z M-11 9.8125 C-14.17115089 13.28094629 -14.193133 15.36480803 -14 20 C-13.14200736 22.19324231 -13.14200736 22.19324231 -10.8125 23.1875 C-7.34729582 24.18855898 -5.43649721 24.09675443 -2 23 C0.63057551 21.10847573 0.63057551 21.10847573 2 18 C2.02579042 14.92062388 1.60423435 12.01460398 1 9 C-5.23261142 7.66955723 -5.23261142 7.66955723 -11 9.8125 Z " fill="#E77520" transform="translate(22,0)"/>
<path d="M0 0 C4.82505738 4.58380451 6.75823894 7.73553342 7.0625 14.4375 C6.92916768 18.73613405 6.76517815 20.01910301 4.125 23.5625 C-0.47493825 26.73864784 -3.99335819 26.91710463 -9.5 26.375 C-12.5 25.0625 -12.5 25.0625 -14.5 23.375 C-14.83 22.385 -15.16 21.395 -15.5 20.375 C-14.283125 20.643125 -13.06625 20.91125 -11.8125 21.1875 C-8.27844788 21.60881938 -7.65611724 21.47058198 -4.4375 19.5 C-2.09995211 15.72976147 -2.01078489 13.74638554 -2.81640625 9.46875 C-3.45038077 7.17740885 -3.45038077 7.17740885 -5.3125 4.8125 C-10.26047585 2.58105991 -15.15678106 3.06821231 -20.5 3.375 C-19.5 0.375 -19.5 0.375 -17.8046875 -0.7890625 C-12.05484899 -2.87459714 -5.48047089 -2.54450434 0 0 Z " fill="#00376E" transform="translate(25.5,1.625)"/>
</svg>
